<?xml version="1.0" encoding="utf-8"?>
<!-- Generator: Adobe Illustrator 15.0.2, SVG Export Plug-In . SVG Version: 6.00 Build 0)  -->
<!DOCTYPE svg PUBLIC "-//W3C//DTD SVG 1.1//EN" "http://www.w3.org/Graphics/SVG/1.1/DTD/svg11.dtd">
<svg version="1.1" id="Layer_1" xmlns="http://www.w3.org/2000/svg" xmlns:xlink="http://www.w3.org/1999/xlink" x="0px" y="0px"
	 width="429.02px" height="429.021px" viewBox="0 0 429.02 429.021" enable-background="new 0 0 429.02 429.021"
	 xml:space="preserve">
<g>
	<path fill="#60B6CA" d="M216.31,412.869v-70.748c0.003-1.76,0.245-3.817,0.921-3.817c1.031,0,3.059,1.154,4.847,2.173
		c2.863,1.63,6.107,3.478,9.313,3.478c13.821,0,22.407-8.502,22.407-22.188s-8.586-22.188-22.407-22.188
		c-3.206,0-6.451,1.848-9.313,3.478c-1.789,1.019-3.815,2.173-4.847,2.173c-0.676,0-0.918-2.058-0.921-3.819v-36.456h98.162v-85.028
		c2.215-0.731,4.662-1.102,7.294-1.102c11.812,0,18.587,6.855,18.587,18.808c0,2.253-1.597,5.057-3.006,7.531
		c-1.818,3.194-3.537,6.212-2.125,8.644c1.3,2.239,4.559,2.502,6.896,2.505h70.75l14.217,210.775L216.31,412.869z"/>
</g>
<g>
	<path fill="#84BE92" d="M16.151,216.311h70.748c3.336,0.004,3.781,0.705,3.785,0.712c0.373,0.642-1.262,3.513-2.14,5.055
		c-1.63,2.862-3.478,6.107-3.478,9.313c0,13.821,8.502,22.407,22.188,22.407c2.134,0,4.176-0.213,6.098-0.636v11.791h99.357v36.425
		c0,2.382,0.3,4.055,0.944,5.263c0.753,1.412,2.023,2.189,3.576,2.188c1.984,0,4.136-1.226,6.628-2.645
		c2.475-1.409,5.279-3.007,7.533-3.007c11.952,0,18.808,6.775,18.808,18.589s-6.855,18.589-18.808,18.589
		c-2.254,0-5.059-1.598-7.533-3.007c-2.492-1.419-4.644-2.645-6.628-2.645c-2.999,0-4.52,2.507-4.52,7.451v70.715L1.935,427.086
		L16.151,216.311z"/>
</g>
<g>
	<path fill="#AAC24E" d="M107.255,250.198c-11.813,0-18.589-6.855-18.589-18.808c0-2.253,1.597-5.058,3.006-7.532
		c1.819-3.194,3.537-6.211,2.125-8.644c-1.299-2.239-4.558-2.501-6.896-2.504h-70.75L1.935,1.935L212.71,16.151v70.716
		c0,1.776-0.241,3.851-0.92,3.851c-1.031,0-3.059-1.155-4.847-2.173c-2.863-1.63-6.107-3.478-9.313-3.478
		c-13.821,0-22.407,8.502-22.407,22.188c0,13.686,8.586,22.188,22.407,22.188c3.206,0,6.451-1.848,9.313-3.478
		c1.789-1.019,3.816-2.173,4.847-2.173c0.679,0,0.92,2.075,0.92,3.851v36.424h-99.357v85.393
		C111.468,249.95,109.423,250.198,107.255,250.198z"/>
</g>
<g>
	<path fill="#D0C82A" d="M342.088,212.71c-3.307-0.009-3.748-0.705-3.752-0.712c-0.373-0.643,1.262-3.513,2.14-5.055
		c1.63-2.862,3.477-6.107,3.477-9.313c0-13.821-8.501-22.407-22.187-22.407c-2.583,0-5.025,0.316-7.294,0.941v-12.097H216.31
		v-36.424c0-4.944-1.521-7.451-4.52-7.451c-1.984,0-4.137,1.226-6.629,2.645c-2.474,1.409-5.278,3.006-7.531,3.006
		c-11.952,0-18.808-6.775-18.808-18.588c0-11.813,6.855-18.589,18.808-18.589c2.253,0,5.058,1.597,7.532,3.006
		c2.492,1.419,4.645,2.645,6.628,2.645c3,0,4.52-2.507,4.52-7.451V16.151L427.085,1.935L412.869,212.71H342.088z"/>
</g>
<text transform="matrix(1 0 0 1 22.1772 95.1812)"><tspan x="0" y="0" fill="#010101" font-family="'Gotham-Light'" font-size="16">URBAN GROWTH</tspan><tspan x="4.16" y="19.2" fill="#010101" font-family="'Gotham-Light'" font-size="16">&amp; PROJECTIONS</tspan></text>
<text transform="matrix(1 0 0 1 245.7515 86.3521)"><tspan x="0" y="0" fill="#010101" font-family="'Gotham-Light'" font-size="16">VULNERABILITY</tspan><tspan x="21.415" y="19.2" fill="#010101" font-family="'Gotham-Light'" font-size="16">TO RISKS &amp;</tspan><tspan x="-18.48" y="38.4" fill="#010101" font-family="'Gotham-Light'" font-size="16">NATURAL HAZARDS</tspan></text>
<text transform="matrix(1 0 0 1 46.4072 333.2451)" fill="#010101" font-family="'Gotham-Light'" font-size="16">SURVEY PLUS</text>
<text transform="matrix(1 0 0 1 271.438 324.8428)"><tspan x="0" y="0" fill="#010101" font-family="'Gotham-Light'" font-size="16">MOBILITY &amp;</tspan><tspan x="4.288" y="19.201" fill="#010101" font-family="'Gotham-Light'" font-size="16">LOGISTICS</tspan></text>
<g>
	<rect x="116.953" y="167.667" fill="#505050" width="193.919" height="93.686"/>
</g>
<text transform="matrix(1 0 0 1 133.0679 196.4937)"><tspan x="0" y="0" fill="#FFFFFF" font-family="'Gotham-Medium'" font-size="20.0661">LOCAL URBAN</tspan><tspan x="-2.88" y="24.079" fill="#FFFFFF" font-family="'Gotham-Medium'" font-size="20.0661">DEVELOPMENT</tspan><tspan x="44.215" y="48.158" fill="#FFFFFF" font-family="'Gotham-Medium'" font-size="20.0661">PLANS</tspan></text>
</svg>
